<svg xmlns="http://www.w3.org/2000/svg" viewBox="0 0 1200 630" role="img" aria-labelledby="title desc">
  <title id="title">ShoppyShop</title>
  <desc id="desc">Thoughtfully selected products for everyday life.</desc>
  <defs>
    <linearGradient id="background" x1="0" y1="0" x2="1" y2="1">
      <stop stop-color="#10162a" />
      <stop offset="1" stop-color="#29204d" />
    </linearGradient>
  </defs>
  <rect width="1200" height="630" rx="48" fill="url(#background)" />
  <circle cx="1060" cy="90" r="210" fill="#6842e8" opacity=".2" />
  <circle cx="115" cy="590" r="260" fill="#ef6a67" opacity=".14" />
  <g transform="translate(110 130) scale(5)">
    <path d="M9 13.5h22l-1.8 20H10.8L9 13.5Z" fill="#eee9ff" stroke="#9b80ff" stroke-width="2" />
    <path d="M14.5 14v-2.5a5.5 5.5 0 0 1 11 0V14M15 23c2.8 3.4 7.2 3.4 10 0" fill="none" stroke="#9b80ff" stroke-linecap="round" stroke-width="2" />
    <path d="m31.5 5 .7 2.3 2.3.7-2.3.7-.7 2.3-.7-2.3-2.3-.7 2.3-.7.7-2.3Z" fill="#ff8580" />
  </g>
  <text x="370" y="285" fill="#ffffff" font-family="Arial, sans-serif" font-size="82" font-weight="800">Shoppy<tspan fill="#9b80ff">Shop</tspan></text>
  <text x="375" y="365" fill="#c9d1e8" font-family="Arial, sans-serif" font-size="30">Thoughtfully selected products for everyday life.</text>
</svg>
